# xmcd
#
# Track frame offsets:
#	150
#	12090
#	27976
#	40137
#	57408
#	76021
#	90945
#	104543
#	128619
#	147071
#	164022
#	185091
#	196927
#	211373
#	227496
#	244792
#	259966
#	282453
#	310797
#	328404
#
# Disc length: 4652 seconds
#
# Revision: 3
# Processed by: cddbd v1.5.2PL0 Copyright (c) Steve Scherf et al.
# Submitted via: EasyCDDAExtractor 2010.6.0.0
#
DISCID=17122a14
DTITLE=Cats, The - The Cats - 100/ CD1
DYEAR=2008
DGENRE=Pop
TTITLE0=1965 What a crazy life
TTITLE1=1972 Let's dance
TTITLE2=1970 Magical mystery morning
TTITLE3=1968 Lea
TTITLE4=1969 Marian
TTITLE5=1968 Times were when
TTITLE6=1974 Be my day
TTITLE7=1970 Where have I been wrong
TTITLE8=1969 Why
TTITLE9=1972 One way wind
TTITLE10=1972 There has been a time
TTITLE11=1975 Come Sunday
TTITLE12=1973 Maribaja
TTITLE13=1968 Vaya con dios
TTITLE14=1973 Let's go together
TTITLE15=1969 Scarlet ribbons
TTITLE16=1974 Rock 'n' Roll
TTITLE17=1974 Mississippi
TTITLE18=If you'll be my woman
TTITLE19=1972 The End Of The Show
EXTD=
EXTT0=
EXTT1=
EXTT2=
EXTT3=
EXTT4=
EXTT5=
EXTT6=
EXTT7=
EXTT8=
EXTT9=
EXTT10=
EXTT11=
EXTT12=
EXTT13=
EXTT14=
EXTT15=
EXTT16=
EXTT17=
EXTT18=
EXTT19=
PLAYORDER=
